<svg width="303" height="269" viewBox="0 0 303 269" fill="none" xmlns="http://www.w3.org/2000/svg">
<g filter="url(#filter0_d_13:75)">
<path fill-rule="evenodd" clip-rule="evenodd" d="M104.551 1.25635C110.726 3.13642 113.905 5.07042 118.215 9.57271C125.162 16.827 129.658 29.3029 129.696 41.427C129.71 46.219 130.263 47.7106 135.021 55.8012C137.942 60.766 141.539 67.9435 143.014 71.7503C144.489 75.557 147.413 80.8609 149.511 83.5361C155.428 91.0792 172.399 108.659 181.455 116.625C202.275 134.939 211.366 151.756 211.366 171.953C211.366 179.919 211.399 180.033 213.693 180.033C223.948 180.033 232.254 174.921 232.254 168.609C232.254 162.599 227.916 156.412 221.447 153.196L218.71 151.836L221.285 149.54C228.259 143.317 240.49 147.123 245.85 157.184C248.153 161.506 248.482 163.057 248.2 168.253C247.578 179.721 240.564 185.442 224.602 187.498C218.01 188.347 214.002 188.258 202.333 187.002C188.029 185.463 162.865 183.757 153.801 183.713C149.305 183.691 148.842 183.48 147.761 180.97C147.119 179.474 144.752 176.618 142.504 174.624C138.495 171.066 128.148 165.409 125.651 165.409C124.674 165.409 124.397 167.548 124.437 174.753L124.49 184.096L106.925 185.669C97.2643 186.536 88.0052 187.485 86.3484 187.779C80.6136 188.799 81.2422 184.324 87.069 182.643C89.0961 182.058 91.4118 180.88 92.217 180.024C94.5555 177.537 97.5254 168.328 98.0941 161.803L98.6173 155.793L90.4956 140.699C79.5683 120.39 79.6281 120.681 82.6863 102.742C84.0516 94.7315 85.4226 85.0579 85.7321 81.2457C86.7728 68.4151 82.3341 60.5896 63.2794 41.6628C50.849 29.3139 47.1718 24.1215 47.13 18.8524C47.1025 15.3802 49.4144 10.8751 52.8495 7.70635C54.3924 6.28327 55.6543 4.57961 55.6543 3.91971C55.6543 2.24437 57.0091 2.41528 61.5979 4.66917C63.7816 5.74128 68.1434 6.8143 71.2928 7.05468C76.5756 7.45683 77.5981 7.20092 84.5425 3.73417C92.7411 -0.358661 97.3668 -0.930815 104.551 1.25635ZM116.961 51.8811C114.261 59.7076 110.466 61.4825 103.766 58.0533C101.326 56.8039 99.3294 55.9849 99.3294 56.2317C99.3294 57.865 104.555 64.1477 106.873 65.3021C110.658 67.1858 112.837 67.0606 115.843 64.7839C121.942 60.1664 124.606 48.2234 122.047 36.9694L120.807 31.5102L119.669 39.4217C119.043 43.7732 117.824 49.3795 116.961 51.8811ZM176.236 187.882C178.063 188.079 184.899 188.68 191.427 189.218C215.856 191.233 243.976 195.99 269.719 202.465C284.373 206.151 297.79 210.341 293.019 209.741C291.191 209.511 281.792 208.303 272.131 207.056C226.493 201.166 183.195 198.791 134.089 199.483C89.7455 200.109 45.5729 203.462 9.76306 208.921C4.62744 209.705 0.239075 210.165 0.0102539 209.945C-0.524292 209.43 19.9261 203.856 37.5034 199.724C53.3642 195.996 79.8503 191.597 98.8546 189.535C111.31 188.183 167.812 186.977 176.236 187.882Z" fill="#3D348B"/>
</g>
<path d="M78.7793 255.764H89.9766V260H73.5059V234.406H78.7793V255.764ZM101.438 260.352C98.6484 260.352 96.375 259.496 94.6172 257.785C92.8711 256.074 91.998 253.795 91.998 250.947V250.455C91.998 248.545 92.3672 246.84 93.1055 245.34C93.8438 243.828 94.8867 242.668 96.2344 241.859C97.5938 241.039 99.1406 240.629 100.875 240.629C103.477 240.629 105.521 241.449 107.01 243.09C108.51 244.73 109.26 247.057 109.26 250.068V252.143H97.1484C97.3125 253.385 97.8047 254.381 98.625 255.131C99.457 255.881 100.506 256.256 101.771 256.256C103.729 256.256 105.258 255.547 106.359 254.129L108.855 256.924C108.094 258.002 107.062 258.846 105.762 259.455C104.461 260.053 103.02 260.352 101.438 260.352ZM100.857 244.742C99.8496 244.742 99.0293 245.082 98.3965 245.762C97.7754 246.441 97.377 247.414 97.2012 248.68H104.268V248.275C104.244 247.15 103.939 246.283 103.354 245.674C102.768 245.053 101.936 244.742 100.857 244.742ZM117.521 260H112.424V240.98H117.521V260ZM112.125 236.059C112.125 235.297 112.377 234.67 112.881 234.178C113.396 233.686 114.094 233.439 114.973 233.439C115.84 233.439 116.531 233.686 117.047 234.178C117.562 234.67 117.82 235.297 117.82 236.059C117.82 236.832 117.557 237.465 117.029 237.957C116.514 238.449 115.828 238.695 114.973 238.695C114.117 238.695 113.426 238.449 112.898 237.957C112.383 237.465 112.125 236.832 112.125 236.059ZM132.023 254.744C132.023 254.123 131.713 253.637 131.092 253.285C130.482 252.922 129.498 252.6 128.139 252.318C123.615 251.369 121.354 249.447 121.354 246.553C121.354 244.865 122.051 243.459 123.445 242.334C124.852 241.197 126.686 240.629 128.947 240.629C131.361 240.629 133.289 241.197 134.73 242.334C136.184 243.471 136.91 244.947 136.91 246.764H131.83C131.83 246.037 131.596 245.439 131.127 244.971C130.658 244.49 129.926 244.25 128.93 244.25C128.074 244.25 127.412 244.443 126.943 244.83C126.475 245.217 126.24 245.709 126.24 246.307C126.24 246.869 126.504 247.326 127.031 247.678C127.57 248.018 128.473 248.316 129.738 248.574C131.004 248.82 132.07 249.102 132.938 249.418C135.621 250.402 136.963 252.107 136.963 254.533C136.963 256.268 136.219 257.674 134.73 258.752C133.242 259.818 131.32 260.352 128.965 260.352C127.371 260.352 125.953 260.07 124.711 259.508C123.48 258.934 122.514 258.154 121.811 257.17C121.107 256.174 120.756 255.102 120.756 253.953H125.572C125.619 254.855 125.953 255.547 126.574 256.027C127.195 256.508 128.027 256.748 129.07 256.748C130.043 256.748 130.775 256.566 131.268 256.203C131.771 255.828 132.023 255.342 132.023 254.744ZM145.207 243.055C146.555 241.438 148.248 240.629 150.287 240.629C154.412 240.629 156.504 243.025 156.562 247.818V260H151.482V247.959C151.482 246.869 151.248 246.066 150.779 245.551C150.311 245.023 149.531 244.76 148.441 244.76C146.953 244.76 145.875 245.334 145.207 246.482V260H140.127V233H145.207V243.055ZM160.729 260V234.406H168.604C170.854 234.406 172.863 234.916 174.633 235.936C176.414 236.943 177.803 238.385 178.799 240.26C179.795 242.123 180.293 244.244 180.293 246.623V247.801C180.293 250.18 179.801 252.295 178.816 254.146C177.844 255.998 176.467 257.434 174.686 258.453C172.904 259.473 170.895 259.988 168.656 260H160.729ZM166.002 238.678V255.764H168.551C170.613 255.764 172.189 255.09 173.279 253.742C174.369 252.395 174.926 250.467 174.949 247.959V246.605C174.949 244.004 174.41 242.035 173.332 240.699C172.254 239.352 170.678 238.678 168.604 238.678H166.002ZM183.018 250.314C183.018 248.428 183.381 246.746 184.107 245.27C184.834 243.793 185.877 242.65 187.236 241.842C188.607 241.033 190.195 240.629 192 240.629C194.566 240.629 196.658 241.414 198.275 242.984C199.904 244.555 200.812 246.688 201 249.383L201.035 250.684C201.035 253.602 200.221 255.945 198.592 257.715C196.963 259.473 194.777 260.352 192.035 260.352C189.293 260.352 187.102 259.473 185.461 257.715C183.832 255.957 183.018 253.566 183.018 250.543V250.314ZM188.098 250.684C188.098 252.488 188.438 253.871 189.117 254.832C189.797 255.781 190.77 256.256 192.035 256.256C193.266 256.256 194.227 255.787 194.918 254.85C195.609 253.9 195.955 252.389 195.955 250.314C195.955 248.545 195.609 247.174 194.918 246.201C194.227 245.229 193.254 244.742 192 244.742C190.758 244.742 189.797 245.229 189.117 246.201C188.438 247.162 188.098 248.656 188.098 250.684ZM203.426 250.35C203.426 247.432 204.117 245.082 205.5 243.301C206.895 241.52 208.77 240.629 211.125 240.629C213.211 240.629 214.834 241.344 215.994 242.773L216.205 240.98H220.811V259.367C220.811 261.031 220.43 262.479 219.668 263.709C218.918 264.939 217.857 265.877 216.486 266.521C215.115 267.166 213.51 267.488 211.67 267.488C210.275 267.488 208.916 267.207 207.592 266.645C206.268 266.094 205.266 265.379 204.586 264.5L206.836 261.406C208.102 262.824 209.637 263.533 211.441 263.533C212.789 263.533 213.838 263.17 214.588 262.443C215.338 261.729 215.713 260.709 215.713 259.385V258.365C214.541 259.689 213 260.352 211.09 260.352C208.805 260.352 206.953 259.461 205.535 257.68C204.129 255.887 203.426 253.514 203.426 250.561V250.35ZM208.506 250.719C208.506 252.441 208.852 253.795 209.543 254.779C210.234 255.752 211.184 256.238 212.391 256.238C213.938 256.238 215.045 255.658 215.713 254.498V246.5C215.033 245.34 213.938 244.76 212.426 244.76C211.207 244.76 210.246 245.258 209.543 246.254C208.852 247.25 208.506 248.738 208.506 250.719Z" fill="#3D348B"/>
<defs>
<filter id="filter0_d_13:75" x="0" y="0" width="303" height="219" filterUnits="userSpaceOnUse" color-interpolation-filters="sRGB">
<feFlood flood-opacity="0" result="BackgroundImageFix"/>
<feColorMatrix in="SourceAlpha" type="matrix" values="0 0 0 0 0 0 0 0 0 0 0 0 0 0 0 0 0 0 127 0" result="hardAlpha"/>
<feOffset dx="5" dy="5"/>
<feGaussianBlur stdDeviation="2"/>
<feComposite in2="hardAlpha" operator="out"/>
<feColorMatrix type="matrix" values="0 0 0 0 0 0 0 0 0 0 0 0 0 0 0 0 0 0 0.25 0"/>
<feBlend mode="normal" in2="BackgroundImageFix" result="effect1_dropShadow_13:75"/>
<feBlend mode="normal" in="SourceGraphic" in2="effect1_dropShadow_13:75" result="shape"/>
</filter>
</defs>
</svg>
